<svg xmlns="http://www.w3.org/2000/svg" width="156" height="98" fill="none" viewBox="0 0 156 98"><path fill="#D7DFFB" d="M3.285 54.508C2.218 72.28 24.986 86.5 46.065 76.878c21.077-9.621 34.287-26.851 35.353-44.624 1.067-17.772-15.155-24.38-36.233-14.758s-40.834 19.24-41.9 37.012"/><path fill="#BFCCFC" d="M11.514 52.579c-.952 15.867 14.835 31.15 33.194 22.769 19.433-10.09 34.43-25.493 35.382-41.36.952-15.866-13.698-22.427-32.057-14.047-18.359 8.381-35.567 16.771-36.519 32.638"/><path fill="#A7BAFE" d="M20.552 51.316c-1.44 13 10.575 26.16 25.66 19.978s28.296-20.05 29.736-33.05S66.326 19.718 51.241 25.9 21.992 38.316 20.552 51.316"/><path fill="#96ADFF" d="M27.1 51.494c-.64 10.657 9.351 21.202 21.027 15.873s21.577-16.912 22.217-27.57c.64-10.657-8.307-14.976-19.983-9.646S27.739 40.836 27.1 51.494"/><path fill="#232426" d="m32.056 37.2 4.17 14.55 4.11-14.55h6.15l-7.35 21.3h-5.82l-7.44-21.3zm21.897 10.83V58.5h-5.85V37.2h4.56l8.55 10.83V37.2h5.85v21.3h-4.65zM79.93 58.65q-2.07 0-3.96-.72a10 10 0 0 1-3.3-2.16q-1.44-1.44-2.28-3.45-.81-2.04-.81-4.65 0-2.25.84-4.17t2.31-3.36q1.5-1.47 3.48-2.28t4.29-.81q2.88 0 5.22 1.26 2.34 1.23 3.48 3.39l-4.35 3.33a4.8 4.8 0 0 0-1.89-2.01q-1.26-.78-2.67-.78-1.05 0-1.92.42t-1.53 1.17q-.63.75-.99 1.8-.33 1.02-.33 2.25 0 1.26.36 2.28t.99 1.77q.66.72 1.56 1.14.9.39 2.01.39 1.41 0 2.7-.69 1.29-.72 2.34-2.01v5.7q-2.4 2.19-5.55 2.19m5.25-7.29h-3.93v-4.2h8.76V58.5h-4.83z"/><path fill="#33437B" d="M94.41 58.5V37.2h5.849v16.2h9.66v5.1zm17.158 0V42.72h5.7V58.5zm0-17.1v-4.8h5.7v4.8zm24.454 17.1h-5.7v-8.88q0-1.17-.54-1.68-.51-.54-1.2-.54-.48 0-1.02.3-.54.27-.99.78t-.72 1.17v8.85h-5.7V42.72h5.13v2.34q.57-.87 1.44-1.44.87-.6 2.01-.9t2.49-.3q1.62 0 2.58.57t1.44 1.47.63 1.89q.15.96.15 1.77zm13.173 0-3.57-5.76-1.14 1.26v4.5h-5.7V36.6h5.7v11.97l4.2-5.85h6l-5.43 6.9 5.97 8.88z"/></svg>