<svg xmlns="http://www.w3.org/2000/svg" width="45" height="14" fill="none" viewBox="0 0 45 14"><g fill="#fff" clip-path="url(#a)"><path d="M44.999 13.726v.08h-3.373l-.434-2.026h-4.684l-.761 2.02h-3.818c.02-.052.034-.094.052-.135l4.273-9.813q.557-1.282 1.12-2.563a1.63 1.63 0 0 1 .709-.799c.33-.182.694-.24 1.068-.243.938-.005 1.876-.002 2.814-.002q.047.002.097.01L43 4.582l.973 4.483.885 4.086c.042.192.093.382.14.573m-7.435-4.727h3.025L39.5 3.921zM30.03 0c.132.017.264.038.396.05q1.145.11 2.222.5c.017.007.033.016.069.033l-.493 2.913c-.26-.102-.509-.207-.762-.297a6.4 6.4 0 0 0-2.821-.324c-.409.041-.799.151-1.134.397a1.02 1.02 0 0 0-.402.555c-.081.295.011.552.226.755.188.18.396.35.623.478.463.263.942.5 1.42.738.681.34 1.325.729 1.858 1.27.504.51.837 1.107.928 1.81a4 4 0 0 1-.354 2.243c-.451.968-1.215 1.641-2.183 2.117a7 7 0 0 1-2.174.65c-.385.052-.774.075-1.16.112h-.791c-1.052-.044-2.088-.185-3.095-.49-.208-.063-.412-.142-.622-.214l.512-3.048c.244.105.474.206.704.304.637.27 1.291.482 1.986.56.662.074 1.325.123 1.987-.01.304-.062.595-.162.854-.332.374-.245.59-.572.55-1.025a.96.96 0 0 0-.26-.558 2.7 2.7 0 0 0-.759-.574c-.442-.235-.894-.453-1.339-.683-.68-.352-1.32-.757-1.843-1.312-.682-.723-.965-1.566-.85-2.539.14-1.206.755-2.14 1.753-2.856.776-.556 1.657-.884 2.602-1.057.348-.063.704-.093 1.056-.14.02-.002.039-.017.058-.025z"/><path fill-opacity="0.5" d="M0 .46.07.245h5.76c.278 0 .553.029.817.113.515.163.811.52.921 1.02.14.633.264 1.27.395 1.906L8.51 5.96l.292 1.418c.008.04.007.08.01.12-.018-.035-.04-.07-.055-.108a9.8 9.8 0 0 0-1.015-1.874C6.87 4.247 5.756 3.212 4.44 2.376c-.194-.124-.399-.232-.6-.347-.222-.122-.44-.253-.668-.366A15.4 15.4 0 0 0 .122.551C.085.541.043.544 0 .541z"/><path d="M3.841 2.029c.2.115.405.222.6.346 1.316.837 2.43 1.872 3.302 3.14A10 10 0 0 1 8.758 7.39c.016.037.037.072.055.108l.334 1.547.095.444L12.809.25h3.853l-.205.49-5.455 12.893c-.08.188-.033.156-.238.156H7.082l-.212-.757L4.068 2.865zM19.503 13.8h-3.645L18.135.253h3.646z"/></g><defs><clipPath id="a"><path fill="#fff" d="M0 0h45v14H0z"/></clipPath></defs></svg>